:version 1.10
:name ASF
:units
  mass 1
  length 1
  angle deg
:documentation
  ASF file generated by Kaydara
:root
  axis xyz
  order  tx ty tz rx ry rz
  position 0 0 0
  orientation 0 0 0
:bonedata
  begin
    id 1
    name RightUpLegDummy
    direction -0.718183 -0.695806 0.00816078
    length 4.904
    axis 0 0 0 xyz
  end
  begin
    id 2
    name RightUpLeg
    direction 3.53989e-006 -0.995788 0.0916897
    length 17.4976
    axis -3.49089 -0.000906621 0.000287158 xyz
    dof rx ry rz
  end
  begin
    id 3
    name RightLeg
    direction 0.00371093 -0.995096 -0.0988418
    length 16.5821
    axis 3.68512 0.0193738 -0.131023 xyz
    dof rx ry rz
  end
  begin
    id 4
    name RightFoot
    direction 0.000791514 -0.46099 0.887405
    length 3.77069
    axis 4.84075e-005 -0.120479 -0.188788 xyz
    dof rx ry rz
  end
  begin
    id 5
    name RightToes
    direction 0.00124746 -0.014064 0.9999
    length 3.85082
    axis 0.00048216 0.542163 -0.142577 xyz
    dof rx ry rz
  end
  begin
    id 6
    name SpineDummy
    direction 8.36599e-015 1 5.97571e-016
    length 4.6813
    axis 0 0 0 xyz
  end
  begin
    id 7
    name Spine
    direction -4.63632e-008 0.999988 0.00495137
    length 10.1015
    axis -0.00138897 0.000121419 3.25764e-006 xyz
    dof rx ry rz
  end
  begin
    id 8
    name Spine1
    direction 0 0 0
    length 0
    axis -0.00138896 0.000121452 2.39764e-006 xyz
    dof rx ry rz
  end
  begin
    id 9
    name HEadDummy
    direction -3.91456e-008 0.999999 0.00127422
    length 3.43865
    axis -0.00138896 0.000121452 2.39764e-006 xyz
  end
  begin
    id 10
    name HEad
    direction -0.0222688 0.980941 0.193023
    length 5.12695
    axis -0.00138895 0.000121452 2.39764e-006 xyz
    dof rx ry rz
  end
  begin
    id 11
    name LeftShoulder1Dummy
    direction 0.998891 -0.0402508 -0.0244456
    length 3.5433
    axis -0.00138896 0.000121452 2.39764e-006 xyz
  end
  begin
    id 12
    name LeftShoulder1
    direction 0.99951 -0.000327743 0.0313091
    length 4.05031
    axis -0.00138896 0.000121452 2.39764e-006 xyz
    dof rx ry rz
  end
  begin
    id 13
    name LeftArm
    direction 0.998561 -0.00100054 -0.0536182
    length 10.3537
    axis -23.1894 0.134784 0.96751 xyz
    dof rx ry rz
  end
  begin
    id 14
    name LeftForeArm
    direction 0.998903 0.00866434 0.046012
    length 8.70632
    axis -9.91835 -0.06569 -0.177792 xyz
    dof rx ry rz
  end
  begin
    id 15
    name LeftHand
    direction 0.992938 -0.0411636 0.11126
    length 5.32135
    axis -0.00960227 -0.00340091 0.185174 xyz
    dof rx ry rz
  end
  begin
    id 16
    name RightShoulderDummy
    direction -0.998891 -0.0402509 -0.0244414
    length 3.5433
    axis -0.00138896 0.000121452 2.39764e-006 xyz
  end
  begin
    id 17
    name RightShoulder
    direction -0.99951 -0.000327827 0.0313133
    length 4.05031
    axis 0.215806 0.000203644 -0.00680151 xyz
    dof rx ry rz
  end
  begin
    id 18
    name RightArm
    direction -0.998573 -0.000999583 -0.053403
    length 10.3947
    axis -23.2009 -0.134239 -0.9641 xyz
    dof rx ry rz
  end
  begin
    id 19
    name RightForeArm
    direction -0.998898 0.00868026 0.0461306
    length 8.68355
    axis -9.92322 0.0658061 0.178869 xyz
    dof rx ry rz
  end
  begin
    id 20
    name RightHand
    direction -0.992843 -0.0414603 0.112003
    length 5.28593
    axis -0.00960634 0.00330671 -0.185226 xyz
    dof rx ry rz
  end
  begin
    id 21
    name LeftUpLegDummy
    direction 0.718183 -0.695806 0.00816078
    length 4.904
    axis 0 0 0 xyz
  end
  begin
    id 22
    name LeftUpLeg
    direction -6.8115e-006 -0.995793 0.0916336
    length 17.4976
    axis -3.48766 0.00143441 -0.000523914 xyz
    dof rx ry rz
  end
  begin
    id 23
    name LeftLeg
    direction -0.00601357 -0.995091 -0.0987824
    length 16.5821
    axis 3.68177 -0.00654038 -0.00028478 xyz
    dof rx ry rz
  end
  begin
    id 24
    name LeftFoot
    direction -0.00417578 -0.460984 0.887399
    length 3.77069
    axis 1.87232e-006 4.66002e-005 -8.1837e-006 xyz
    dof rx ry rz
  end
  begin
    id 25
    name LeftToes
    direction 0.00818058 -0.00485161 0.999955
    length 3.85048
    axis 1.06246e-005 4.65855e-005 -8.18502e-006 xyz
    dof rx ry rz
  end
:hierarchy
  begin
    root RightUpLegDummy SpineDummy LeftUpLegDummy
    RightUpLegDummy RightUpLeg
    RightUpLeg RightLeg
    RightLeg RightFoot
    RightFoot RightToes
    SpineDummy Spine
    Spine Spine1
    Spine1 HEadDummy LeftShoulder1Dummy RightShoulderDummy
    HEadDummy HEad
    LeftShoulder1Dummy LeftShoulder1
    LeftShoulder1 LeftArm
    LeftArm LeftForeArm
    LeftForeArm LeftHand
    RightShoulderDummy RightShoulder
    RightShoulder RightArm
    RightArm RightForeArm
    RightForeArm RightHand
    LeftUpLegDummy LeftUpLeg
    LeftUpLeg LeftLeg
    LeftLeg LeftFoot
    LeftFoot LeftToes
  end

:SAMPLES-PER-SECOND 30
:FULLY-SPECIFIED
:DEGREES
1
root  -3.05437 40.8942 0.332133 -3.84201 -88.6778 3.91976
RightUpLeg  3.27339 -0.81926 -0.778647
RightLeg  -0.12888 -18.7326 -0.324104
RightFoot  -2.26185 -0.257803 3.04703
RightToes  -3.1126e-008 1.75238e-005 3.56266e-009
Spine  -7.83103 -0.31722 -1.77861
Spine1  16.0311 -0.283815 0.394964
HEad  -16.2923 -3.04414 3.59355
LeftShoulder1  1.46694 -1.43523 -23.4207
LeftArm  -50.3658 28.0689 -58.8514
LeftForeArm  66.8566 -57.6609 -12.0398
LeftHand  0.0256811 -7.81124 0.16324
RightShoulder  2.21368 3.78825 24.2533
RightArm  -33.8617 -20.6029 43.0066
RightForeArm  32.1062 39.7248 7.26501
RightHand  0.167174 4.20532 1.74094
LeftUpLeg  3.28923 0.635671 1.17566
LeftLeg  -0.842497 10.6217 -0.573754
LeftFoot  -2.1998 0.159388 -1.84024
LeftToes  4.78349e-008 1.46828e-008 1.33736e-009
2
root  -2.99587 40.89 0.26416 -0.572639 -88.4408 0.278683
RightUpLeg  3.50198 -0.811116 -0.59826
RightLeg  0.0985117 -18.9973 -0.336622
RightFoot  -2.40331 -0.249811 2.98468
RightToes  -3.1126e-008 1.75238e-005 3.56266e-009
Spine  -7.39501 -0.0161319 -1.70116
Spine1  16.7114 0.00226782 0.435535
HEad  -17.9158 -3.4937 4.68121
LeftShoulder1  1.80136 -2.37269 -24.4367
LeftArm  -47.611 26.1465 -60.2073
LeftForeArm  66.3752 -57.4854 -11.9774
LeftHand  -0.167912 -6.85611 1.92938
RightShoulder  2.44928 4.37182 25.0361
RightArm  -30.9231 -20.4843 44.231
RightForeArm  31.0934 40.5329 7.56895
RightHand  0.116465 4.12055 1.14568
LeftUpLeg  3.34322 0.836081 1.42334
LeftLeg  -0.358142 10.1787 -0.485854
LeftFoot  -2.3981 0.176235 -2.10219
LeftToes  4.78349e-008 1.46828e-008 1.33736e-009
3
root  -2.91569 40.8741 0.179568 1.45586 -88.2452 -2.27784
RightUpLeg  3.75882 -0.878154 -0.443355
RightLeg  0.595892 -19.0879 -0.393372
RightFoot  -2.69418 -0.240696 2.93985
RightToes  -3.1126e-008 1.75238e-005 3.56266e-009
Spine  -7.20164 0.353381 -1.64408
Spine1  18.4699 0.335734 0.585324
HEad  -20.832 -3.70271 6.72347
LeftShoulder1  2.16244 -3.3486 -25.3949
LeftArm  -41.7856 23.4378 -59.7305
LeftForeArm  65.8416 -57.0852 -11.7969
LeftHand  -0.313753 -6.69366 3.36493
RightShoulder  2.63548 4.87379 25.4084
RightArm  -27.418 -19.3626 44.9641
RightForeArm  31.7235 41.4744 7.81921
RightHand  0.132755 4.4467 1.28309
LeftUpLeg  3.36404 1.08894 1.70515
LeftLeg  0.493966 9.69809 -0.380446
LeftFoot  -2.77729 0.188089 -2.28654
LeftToes  4.78349e-008 1.46828e-008 1.33736e-009
4
root  -2.84177 40.8456 0.0982777 0.467402 -88.0844 -1.99242
RightUpLeg  3.99485 -1.10539 -0.426683
RightLeg  1.54954 -19.0222 -0.54298
RightFoot  -3.23075 -0.23505 3.00295
RightToes  -3.1126e-008 1.75238e-005 3.56266e-009
Spine  -6.39375 0.650068 -1.46112
Spine1  19.5081 0.633783 0.576071
HEad  -23.0387 -3.5478 8.33326
LeftShoulder1  2.47527 -4.22776 -25.8832
LeftArm  -32.7986 20.9045 -57.4606
LeftForeArm  66.8856 -57.1394 -11.7582
LeftHand  -0.425284 -6.19598 4.58588
RightShoulder  2.84117 5.47757 25.5834
RightArm  -23.6078 -18.9006 45.2881
RightForeArm  31.9248 43.2539 8.37871
RightHand  0.0871885 4.46001 0.739892
LeftUpLeg  3.49441 1.28589 1.86752
LeftLeg  1.53275 9.30825 -0.202153
LeftFoot  -3.26455 0.189528 -2.40667
LeftToes  4.78349e-008 1.46828e-008 1.33736e-009
5
root  -2.77201 40.8068 0.0203714 -0.506122 -88.0823 -1.83617
RightUpLeg  4.31289 -1.16105 -0.293002
RightLeg  2.56245 -18.9444 -0.930289
RightFoot  -3.73476 -0.229857 3.07496
RightToes  -3.1126e-008 1.75238e-005 3.56266e-009
Spine  -5.7716 0.738376 -0.973074
Spine1  21.1175 0.7711 0.371802
HEad  -25.2113 -3.07169 9.92945
LeftShoulder1  2.66121 -4.80615 -25.8887
LeftArm  -24.5508 17.7419 -55.1864
LeftForeArm  68.6499 -57.5592 -11.8708
LeftHand  -0.415172 -6.59831 4.38686
RightShoulder  2.96368 5.82477 25.7252
RightArm  -19.9868 -17.3174 45.5301
RightForeArm  32.2589 44.7904 8.87077
RightHand  0.0765672 4.44787 0.621324
LeftUpLeg  3.57724 1.41839 1.99433
LeftLeg  2.98738 9.11828 0.0997211
LeftFoot  -3.93941 0.193563 -2.62721
LeftToes  4.78349e-008 1.46828e-008 1.33736e-009
6
root  -2.70393 40.7421 -0.0473418 -3.74582 -88.3804 0.730669
RightUpLeg  4.05984 -1.25335 -0.264373
RightLeg  4.41242 -18.5261 -1.59768
RightFoot  -4.60071 -0.220046 3.20197
RightToes  -3.1126e-008 1.75238e-005 3.56266e-009
Spine  -4.93841 0.828138 -1.21477
Spine1  22.2146 0.583354 1.25203
HEad  -27.2639 -1.96829 10.994
LeftShoulder1  2.8222 -5.29953 -25.9283
LeftArm  -19.4229 14.9985 -53.8839
LeftForeArm  69.9915 -58.7663 -12.462
LeftHand  -0.32356 -8.29023 3.10563
RightShoulder  2.91967 5.84235 25.1696
RightArm  -16.7268 -14.6867 46.0061
RightForeArm  32.659 44.6994 8.815
RightHand  0.0395002 4.88664 0.143008
LeftUpLeg  3.35154 1.50822 2.01761
LeftLeg  4.81629 9.24739 0.446579
LeftFoot  -4.754 0.201854 -3.0153
LeftToes  4.78349e-008 1.46828e-008 1.33736e-009
7
root  -2.6596 40.6539 -0.116948 -1.68699 -88.2778 -1.83643
RightUpLeg  3.65033 -1.31626 -0.064347
RightLeg  6.36031 -18.5195 -2.23603
RightFoot  -5.48611 -0.204265 3.26367
RightToes  -3.1126e-008 1.75238e-005 3.56266e-009
Spine  -3.68425 0.545364 -1.23347
Spine1  22.0089 0.042055 1.95715
HEad  -27.8947 -1.00469 12.3071
LeftShoulder1  2.94316 -5.74262 -25.691
LeftArm  -16.8785 13.5243 -53.4033
LeftForeArm  68.7961 -60.5341 -13.6072
LeftHand  -0.112569 -8.47822 1.32461
RightShoulder  3.018 6.21872 24.961
RightArm  -13.7307 -13.4813 45.9359
RightForeArm  32.8214 45.7915 9.19313
RightHand  -0.001456 4.61961 -0.306865
LeftUpLeg  2.61917 1.90466 2.2741
LeftLeg  7.29091 8.56923 0.844002
LeftFoot  -5.78748 0.201421 -3.43459
LeftToes  4.78349e-008 1.46828e-008 1.33736e-009
8
root  -2.68118 40.5735 -0.17577 -3.80169 -88.0801 0.243505
RightUpLeg  2.96157 -1.41764 -0.0212182
RightLeg  8.04212 -18.5035 -2.82029
RightFoot  -6.26272 -0.192763 3.38415
RightToes  -3.1126e-008 1.75238e-005 3.56266e-009
Spine  -3.39042 0.192181 -1.48523
Spine1  21.9604 -0.637649 2.93938
HEad  -27.835 -0.218055 13.2009
LeftShoulder1  2.91406 -5.81591 -25.1049
LeftArm  -16.3496 12.3288 -54.0377
LeftForeArm  67.2511 -62.3449 -14.9912
LeftHand  -0.00361182 -8.38294 0.413961
RightShoulder  3.017 6.35202 24.5005
RightArm  -11.3227 -13.0044 46.0934
RightForeArm  33.1512 47.139 9.66447
RightHand  -0.0379591 4.5865 -0.730756
LeftUpLeg  1.75963 2.49866 2.43763
LeftLeg  9.12647 7.68708 0.964844
LeftFoot  -6.49017 0.195418 -3.69033
LeftToes  4.78349e-008 1.46828e-008 1.33736e-009
9
root  -2.76633 40.538 -0.265501 -4.19467 -87.6806 0.932129
RightUpLeg  2.55785 -1.48738 0.0575363
RightLeg  8.615 -18.7991 -2.98618
RightFoot  -6.63363 -0.189207 3.50331
RightToes  -3.1126e-008 1.75238e-005 3.56266e-009
Spine  -3.1347 -0.262379 -1.99122
Spine1  20.8265 -1.45718 4.09038
HEad  -26.6899 0.808509 13.4205
LeftShoulder1  2.8643 -5.92022 -24.1885
LeftArm  -17.1495 12.6539 -55.4342
LeftForeArm  64.923 -65.0458 -17.4583
LeftHand  -0.00485336 -7.29169 0.403394
RightShoulder  2.82794 5.90637 23.9219
RightArm  -9.01154 -13.0732 46.5498
RightForeArm  33.3284 47.7327 9.88446
RightHand  -0.0704602 4.48659 -1.11641
LeftUpLeg  0.951454 3.2554 2.70553
LeftLeg  10.2353 6.4821 0.860792
LeftFoot  -6.73208 0.194463 -3.82721
LeftToes  4.78349e-008 1.46828e-008 1.33736e-009
10
root  -2.84568 40.5356 -0.383959 -11.7702 -87.1157 9.26662
RightUpLeg  1.76029 -1.5754 -0.145056
RightLeg  8.97271 -19.2395 -3.26148
RightFoot  -6.84092 -0.187038 3.57408
RightToes  -3.1126e-008 1.75238e-005 3.56266e-009
Spine  -2.10744 -0.718739 -2.90154
Spine1  17.6136 -2.17165 5.35105
HEad  -24.231 1.46546 13.8305
LeftShoulder1  2.79404 -6.07914 -22.8914
LeftArm  -18.5014 14.0876 -57.2557
LeftForeArm  61.9456 -68.0396 -21.033
LeftHand  -0.0427519 -5.81635 0.783293
RightShoulder  2.80051 5.95825 23.4429
RightArm  -7.90313 -15.2737 47.1684
RightForeArm  33.8974 48.4276 10.1155
RightHand  -0.1196 4.37674 -1.69532
LeftUpLeg  -0.276899 4.12847 2.62416
LeftLeg  11.0434 5.09501 0.584343
LeftFoot  -6.42273 0.218734 -4.19632
LeftToes  4.78349e-008 1.46828e-008 1.33736e-009
11
root  -2.95923 40.5775 -0.520523 -17.8699 -86.136 16.4936
RightUpLeg  0.902664 -1.7218 -0.532021
RightLeg  8.78022 -19.9359 -3.36886
RightFoot  -6.79211 -0.188943 3.59398
RightToes  -3.1126e-008 1.75238e-005 3.56266e-009
Spine  -1.83453 -1.3057 -4.04193
Spine1  14.5926 -2.95471 6.6081
HEad  -21.0948 1.95502 13.9831
LeftShoulder1  2.6409 -6.27156 -20.6059
LeftArm  -20.8186 15.6288 -60.6133
LeftForeArm  58.0035 -70.4642 -25.2111
LeftHand  -0.168098 -4.56016 2.2417
RightShoulder  2.65057 5.80917 22.2144
RightArm  -6.99484 -17.7733 48.717
RightForeArm  33.8388 47.8671 9.89706
RightHand  -0.200858 4.73281 -2.59895
LeftUpLeg  -1.63359 4.92474 2.33997
LeftLeg  11.2665 3.48277 0.113328
LeftFoot  -5.57533 0.270941 -4.69858
LeftToes  4.78349e-008 1.46828e-008 1.33736e-009
